<?xml version="1.0" encoding="utf-8"?>
<!-- Generator: Adobe Illustrator 28.3.0, SVG Export Plug-In . SVG Version: 6.00 Build 0)  -->
<svg version="1.1" id="Layer_1" xmlns="http://www.w3.org/2000/svg" xmlns:xlink="http://www.w3.org/1999/xlink" x="0px" y="0px"
	 viewBox="0 0 458.6 400" style="enable-background:new 0 0 458.6 400;" xml:space="preserve">
<style type="text/css">
	.st0{fill:#FFE100;}
	.st1{fill:url(#SVGID_1_);}
	.st2{fill:url(#SVGID_00000052102372437006429180000012802521167083004802_);}
	.st3{fill:url(#SVGID_00000038390782610274660830000008221230295012759427_);}
	.st4{fill:url(#SVGID_00000170956831503129824140000011316356687924361123_);}
	.st5{fill:url(#SVGID_00000108305364588608352360000006188298140795853463_);}
	.st6{fill:url(#SVGID_00000128466421783503050460000002076087444387999884_);}
	.st7{fill:url(#SVGID_00000181078354106356169960000000218168849886366637_);}
	.st8{fill:url(#SVGID_00000039136066598318547290000000945736993423372426_);}
	.st9{fill:url(#SVGID_00000141422193217676235410000018258109799943898289_);}
	.st10{fill:url(#SVGID_00000129173916351644355390000009258639491631802292_);}
	.st11{fill:#150301;}
</style>
<g id="レイヤー_1">
	<g>
		<rect class="st0" width="400" height="400"/>
		
			<linearGradient id="SVGID_1_" gradientUnits="userSpaceOnUse" x1="311.0051" y1="-382.2296" x2="318.0701" y2="-384.3183" gradientTransform="matrix(77.3572 0 0 77.3572 -24290.8613 30009.7285)">
			<stop  offset="0" style="stop-color:#FFE419"/>
			<stop  offset="0.34" style="stop-color:#FFFFFF"/>
			<stop  offset="0.66" style="stop-color:#FFFFFF"/>
			<stop  offset="1" style="stop-color:#FFE419"/>
		</linearGradient>
		<path class="st1" d="M303.1,283.2c-88.9,15.7-178,36.6-266.8,62.8c-12.1,3.6-24.2,7.3-36.3,11v31.4c15-4.1,30-8.4,45-12.8
			C133.8,349.3,219.9,318.4,303.1,283.2z"/>
		
			<linearGradient id="SVGID_00000079486005849868012480000009155801700136918680_" gradientUnits="userSpaceOnUse" x1="311.6118" y1="-382.8767" x2="318.395" y2="-385.082" gradientTransform="matrix(77.3572 0 0 77.3572 -24290.8613 30009.7285)">
			<stop  offset="0" style="stop-color:#FFE419"/>
			<stop  offset="0.355" style="stop-color:#FFFFFF"/>
			<stop  offset="0.645" style="stop-color:#FFFFFF"/>
			<stop  offset="1" style="stop-color:#FFE419"/>
		</linearGradient>
		<path style="fill:url(#SVGID_00000079486005849868012480000009155801700136918680_);" d="M328.3,224.4
			c-85.4,18.2-170.8,41-255.9,68.7C48,301,23.9,309.2,0,317.8v26.4c27-7.8,54-16.1,80.9-24.8C166.1,291.7,248.6,259.9,328.3,224.4z"
			/>
		
			<linearGradient id="SVGID_00000026862268502496226310000001704137763768936875_" gradientUnits="userSpaceOnUse" x1="312.1821" y1="-383.4866" x2="318.7057" y2="-385.8121" gradientTransform="matrix(77.3572 0 0 77.3572 -24290.8613 30009.7285)">
			<stop  offset="0" style="stop-color:#FFE419"/>
			<stop  offset="0.37" style="stop-color:#FFFFFF"/>
			<stop  offset="0.63" style="stop-color:#FFFFFF"/>
			<stop  offset="1" style="stop-color:#FFE419"/>
		</linearGradient>
		<path style="fill:url(#SVGID_00000026862268502496226310000001704137763768936875_);" d="M352.5,168.2
			c-82.1,20.3-164.2,44.9-246,74.1C70.5,255.2,35,268.7,0,283v21.5c38.4-11.7,76.8-24.4,115.1-38
			C196.9,237.3,276.1,204.5,352.5,168.2z"/>
		
			<linearGradient id="SVGID_00000014605107156411273310000002811697608031671434_" gradientUnits="userSpaceOnUse" x1="312.7226" y1="-384.0639" x2="319.0018" y2="-386.5121" gradientTransform="matrix(77.3572 0 0 77.3572 -24290.8613 30009.7285)">
			<stop  offset="0" style="stop-color:#FFE419"/>
			<stop  offset="0.385" style="stop-color:#FFFFFF"/>
			<stop  offset="0.615" style="stop-color:#FFFFFF"/>
			<stop  offset="1" style="stop-color:#FFE419"/>
		</linearGradient>
		<path style="fill:url(#SVGID_00000014605107156411273310000002811697608031671434_);" d="M375.6,114.4
			c-79,22.4-158,48.9-236.6,79.5C91.7,212.3,45.4,232,0,252.7v15.8c49.3-15.9,98.5-33.4,147.6-52.5
			C226.2,185.3,302.3,151.4,375.6,114.4z"/>
		
			<linearGradient id="SVGID_00000150811618386332588770000002451174189208888718_" gradientUnits="userSpaceOnUse" x1="313.2407" y1="-384.6152" x2="319.2896" y2="-387.189" gradientTransform="matrix(77.3572 0 0 77.3572 -24290.8613 30009.7285)">
			<stop  offset="0" style="stop-color:#FFE419"/>
			<stop  offset="0.4" style="stop-color:#FFFFFF"/>
			<stop  offset="0.6" style="stop-color:#FFFFFF"/>
			<stop  offset="1" style="stop-color:#FFE419"/>
		</linearGradient>
		<path style="fill:url(#SVGID_00000150811618386332588770000002451174189208888718_);" d="M397.9,62.4
			c-76.1,24.6-152.2,52.9-227.8,85.1C111.9,172.2,55.2,198.8,0,226.9v9.3c59.7-20.5,119.3-43.4,178.6-68.7
			C254.2,135.4,327.4,100.2,397.9,62.4z"/>
		
			<linearGradient id="SVGID_00000127762594968536635800000009437370920999673498_" gradientUnits="userSpaceOnUse" x1="313.7365" y1="-385.1419" x2="319.5695" y2="-387.8458" gradientTransform="matrix(77.3572 0 0 77.3572 -24290.8613 30009.7285)">
			<stop  offset="0" style="stop-color:#FFE626"/>
			<stop  offset="0.415" style="stop-color:#FFFFFF"/>
			<stop  offset="0.585" style="stop-color:#FFFFFF"/>
			<stop  offset="1" style="stop-color:#FFE419"/>
		</linearGradient>
		<path style="fill:url(#SVGID_00000127762594968536635800000009437370920999673498_);" d="M400,23.1v-3.9
			C333.2,44.1,266.5,72,200.1,102.7C131.2,134.6,64.4,168.9,0,205.3v2.2c69.7-25.7,139.3-54.6,208.5-86.7
			C274.4,90.3,338.2,57.7,400,23.1z"/>
		
			<linearGradient id="SVGID_00000140696988404457163350000015332286723331796670_" gradientUnits="userSpaceOnUse" x1="314.21" y1="-385.6464" x2="319.8415" y2="-388.4861" gradientTransform="matrix(77.3572 0 0 77.3572 -24290.8613 30009.7285)">
			<stop  offset="0" style="stop-color:#FFE733"/>
			<stop  offset="0.43" style="stop-color:#FFFFFF"/>
			<stop  offset="0.57" style="stop-color:#FFFFFF"/>
			<stop  offset="1" style="stop-color:#FFE419"/>
		</linearGradient>
		<path style="fill:url(#SVGID_00000140696988404457163350000015332286723331796670_);" d="M25.5,172.2
			c70.8-29,141.5-61.2,211.8-96.6c48-24.2,94.8-49.4,140.5-75.6h-23.9c-41.7,18.7-83.3,38.4-124.8,59.3
			C158.9,94.8,90.9,132.5,25.5,172.2z"/>
		
			<linearGradient id="SVGID_00000091014883185030807060000014482295507240038032_" gradientUnits="userSpaceOnUse" x1="314.6717" y1="-386.1346" x2="320.1094" y2="-389.1141" gradientTransform="matrix(77.3572 0 0 77.3572 -24290.8613 30009.7285)">
			<stop  offset="0" style="stop-color:#FFE940"/>
			<stop  offset="0.445" style="stop-color:#FFFFFF"/>
			<stop  offset="0.555" style="stop-color:#FFFFFF"/>
			<stop  offset="1" style="stop-color:#FFE419"/>
		</linearGradient>
		<path style="fill:url(#SVGID_00000091014883185030807060000014482295507240038032_);" d="M60.9,134.2
			c68.3-31.3,136.6-65.5,204.4-102.6C284.2,21.2,303,10.7,321.5,0H289c-10.6,5.6-21.1,11.3-31.7,17.1
			C189.5,54.3,124,93.4,60.9,134.2z"/>
		
			<linearGradient id="SVGID_00000032616701650783880660000005403562296417483454_" gradientUnits="userSpaceOnUse" x1="315.1274" y1="-386.6163" x2="320.3668" y2="-389.7335" gradientTransform="matrix(77.3572 0 0 77.3572 -24290.8613 30009.7285)">
			<stop  offset="0" style="stop-color:#FFEA4C"/>
			<stop  offset="0.46" style="stop-color:#FFFFFF"/>
			<stop  offset="0.54" style="stop-color:#FFFFFF"/>
			<stop  offset="1" style="stop-color:#FFE419"/>
		</linearGradient>
		<path style="fill:url(#SVGID_00000032616701650783880660000005403562296417483454_);" d="M272.2,0h-27.9
			C193.4,31.2,144,63.4,96,96.4C154.9,66.4,213.6,34.3,272.2,0z"/>
		
			<linearGradient id="SVGID_00000113328201710395825510000009859353514423313574_" gradientUnits="userSpaceOnUse" x1="315.5874" y1="-387.1015" x2="320.6331" y2="-390.3594" gradientTransform="matrix(77.3572 0 0 77.3572 -24290.8613 30009.7285)">
			<stop  offset="0" style="stop-color:#FFEC59"/>
			<stop  offset="0.475" style="stop-color:#FFFFFF"/>
			<stop  offset="0.525" style="stop-color:#FFFFFF"/>
			<stop  offset="1" style="stop-color:#FFE419"/>
		</linearGradient>
		<path style="fill:url(#SVGID_00000113328201710395825510000009859353514423313574_);" d="M231,0h-17.6
			c-27.9,19.3-55.3,38.8-82.3,58.5C164.5,39.7,197.8,20.2,231,0z"/>
		<path class="st11" d="M145,385.4l21.6-97.3h26.6l-11.6,51.8l21.5-26h29.8l-26.7,32.4l11,39.1h-26.6l-11-37l-8.7,37L145,385.4
			L145,385.4z M48.9,336.5l18.8,48.9h25.5l22-97.3H88.9l-11.1,49.5l-18.4-49.5H32.7L11,385.4h26.8C40.8,369.8,44.9,353.3,48.9,336.5
			z M132.2,385.4l15.9-71.5H122l-15.9,71.5H132.2z M123.4,298.3c0,2.2,0.5,10.2,14.8,10.2c11.9,0,16.5-7.6,16.5-13.3
			c0-3.8-3.1-10.5-14.8-10.5C129,284.7,123.4,291.9,123.4,298.3z M374.8,313c-11.2-3.3-25,2.2-31.9,11.7c0.7-2.9,1.4-6.3,2.2-10.3
			h-26.5l-15.5,71h26.4l8.8-40.3c1.6-7.4,7.6-10.6,12.9-9.2c2.3,0.6,5.4,2.3,4.4,8.5l-9,41h26.1l12-54.7
			C387.1,318.6,377.2,313.7,374.8,313z M286,379c11.5-9.4,17.1-25.2,16.9-40.1c-0.2-14.3-12.3-27.9-33.4-27.9
			c-40.2,0-46.1,31.4-47.3,37.1c-2.9,14.5,0.3,33.3,19.2,38.3C254,389.6,273.5,389.2,286,379z M256.5,337.5c1.9-5.2,7-6.4,9.4-6.4
			c5.8,0,7.3,3.4,6.8,6.6c-1.4,8.9-4.5,20.3-5.6,23.9v0.1c-1.3,3.9-5,6.2-9.4,6.2s-7.1-2.8-6.7-6.3
			C251.6,355.7,255.4,340.5,256.5,337.5z"/>
	</g>
</g>
</svg>
